<?xml version="1.0" encoding="UTF-8"?>
<svg id="Capa_1" xmlns="http://www.w3.org/2000/svg" width="96" height="96" viewBox="0 0 96 96">
  <path d="M74.44,28.75c.2,0,.4,0,.6.02.34.11.53.34.58.7.12.69.12,1.38,0,2.07-.25,1.5-.68,2.95-1.31,4.34-1.68,3.77-3.46,7.5-5.33,11.18-2.34,4.24-4.77,8.42-7.28,12.54-.62,1.19-1.22,2.39-1.81,3.58-.5-.24-.89-.6-1.17-1.07-.09-.23-.12-.47-.08-.72.17-.73.45-1.42.84-2.07,2.85-4.89,5.75-9.75,8.72-14.57,2-3.54,3.78-7.19,5.33-10.94.43-1.07.78-2.17,1.03-3.3.03-.16.03-.32,0-.48-.06-.2-.2-.3-.4-.32-.26.05-.5.13-.74.26-.93.63-1.81,1.33-2.63,2.11-3.16,3.09-6.15,6.34-8.95,9.73,1.98.02,3.95.07,5.93.14.42.03.82.14,1.19.32.18.14.2.28.04.44-.21-.11-.43-.19-.68-.24-.53-.07-1.06-.12-1.59-.14-.97.05-1.95.08-2.93.08-.82-.01-1.63-.02-2.45-.02-1.33,1.59-2.59,3.23-3.8,4.92-.46.66-.87,1.35-1.23,2.07-.06.14-.1.29-.12.44,0,.53,0,1.06-.02,1.59-.07.03-.13,0-.18-.08-.45-.93-.45-1.86,0-2.79.37-.81.8-1.6,1.27-2.35,1.4-2.15,2.93-4.2,4.58-6.17,2.34-2.81,4.87-5.46,7.58-7.94,1.15-1.04,2.39-1.96,3.7-2.79.42-.23.86-.4,1.31-.54Z" style="fill-rule: evenodd; isolation: isolate; opacity: .98;"/>
  <path d="M22.59,30.5c.9-.04,1.77.07,2.63.34.89.36,1.4,1.02,1.53,1.97.17,1.19.12,2.37-.16,3.54-.49,1.73-1.14,3.4-1.97,4.99.64-.03,1.27-.07,1.91-.1.4,0,.8.04,1.19.08.07-.01.13-.03.2-.04.55-.77,1.23-1.42,2.03-1.93.48-.33.79-.21.94.34.04.26.02.51-.08.76-.03.03-.06.04-.1.06-.19.01-.37.03-.56.04-.43.25-.78.57-1.07.98.61.11,1.18.31,1.71.62.13.09.23.21.32.34-.53-.17-1.07-.32-1.63-.46-.24-.06-.48-.1-.72-.12-1.25,1.37-2.43,2.8-3.54,4.28l.04.04c.6-.24,1.18-.51,1.75-.82.51-.33,1.03-.65,1.55-.96.38-.19.78-.24,1.19-.16.21.08.29.24.24.48-.05.34-.08.68-.1,1.01.1.04.2.04.3-.02.54-.26,1.07-.54,1.59-.84.32-.56.74-1.03,1.27-1.39.37-.21.77-.29,1.19-.24.27.14.4.36.4.68-.02.11-.04.22-.08.32.17.1.36.14.56.14.23-.01.46-.05.68-.12.06,0,.08.04.06.08-.43.24-.88.3-1.35.16-.06.03-.12.07-.18.1-.09.21-.19.41-.3.62-.28.4-.61.77-.98,1.09-.48.36-.94.34-1.37-.06-.16-.31-.18-.63-.06-.96-.01-.03-.03-.05-.04-.08-.58.42-1.19.8-1.83,1.13-.24.12-.49.16-.76.12-.14-.07-.21-.18-.22-.34,0-.36,0-.72,0-1.07,0-.13-.06-.22-.18-.28-1.3.8-2.61,1.58-3.94,2.33-.31.1-.53,0-.66-.3-.04-.21-.02-.41.08-.6,1.12-1.52,2.27-3.02,3.44-4.5-1.04-.13-2.07-.11-3.1.06-2.39,5.02-5.07,9.86-8.06,14.51-1.36,2.08-2.85,4.07-4.46,5.97-1.19,1.4-2.52,2.63-4,3.68-.77.52-1.61.91-2.51,1.15-1.09.22-2.14.1-3.14-.36-1.06-.64-1.64-1.59-1.73-2.85-.07-1.19.07-2.36.44-3.5.76-2.25,1.82-4.33,3.18-6.25,3.33-4.7,7.6-8.29,12.8-10.77,1.62-.71,3.29-1.26,5.01-1.65.83-1.65,1.58-3.33,2.25-5.05.44-1.1.71-2.24.82-3.42.02-.86-.36-1.45-1.15-1.77-.58-.2-1.18-.28-1.79-.26-1.74.05-3.42.38-5.05.98-2.35.87-4.6,1.96-6.75,3.24-.03-.04-.03-.08,0-.12.19-.27.37-.53.56-.8,3.2-1.87,6.61-3.16,10.25-3.88.51-.07,1.01-.13,1.51-.18ZM21.63,42.29s.04.02.04.04c-3.05,6.06-6.55,11.83-10.49,17.31-1.13,1.53-2.39,2.97-3.76,4.32-.57.54-1.2.97-1.91,1.31-.77.27-1.55.34-2.35.2-.88-.27-1.43-.84-1.65-1.73-.17-.74-.18-1.48-.04-2.23.25-1.4.68-2.74,1.31-4.02,2.47-4.85,5.99-8.75,10.57-11.72,2.56-1.63,5.32-2.79,8.28-3.48ZM33.81,44.63c.05.02.08.06.08.12-.03.12-.09.23-.18.32-.23.22-.47.43-.72.64.08-.5.35-.86.82-1.07Z" style="fill-rule: evenodd; isolation: isolate; opacity: .98;"/>
  <path d="M87.26,42.52c.29,0,.58,0,.88.02.16.04.26.15.28.32-.02.16-.08.3-.18.42-.24.25-.48.49-.74.74-1.21.87-2.36,1.84-3.42,2.91.89-.41,1.82-.71,2.79-.92.44-.04.88-.02,1.31.04.29.09.42.28.38.58-.05.08-.12.12-.22.12-.25-.13-.51-.22-.8-.26-.7-.03-1.38.08-2.03.36l-1.67.72c-.53.09-.7-.11-.5-.62.27-.45.59-.86.96-1.23.34-.33.69-.64,1.05-.94.76-.59,1.52-1.18,2.27-1.79-.52.04-1,.21-1.43.52-.07.24-.23.32-.48.24-.06-.02-.1-.05-.14-.1-.03-.14-.02-.27.04-.4.2-.17.42-.31.66-.42.33-.12.66-.22.99-.3Z" style="fill-rule: evenodd; isolation: isolate; opacity: .96;"/>
  <path d="M50.41,42.92c.47-.09.77.09.9.56.14.41.13.8-.04,1.19-.84,1.3-1.75,2.55-2.75,3.74-1.35,1.66-2.81,3.23-4.36,4.72-1.72,1.51-3.55,2.86-5.49,4.06-1.27.73-2.64,1.16-4.1,1.31-1.55.16-2.7-.45-3.44-1.81-.31-.75-.34-1.5-.08-2.27.45-1.27,1.22-2.28,2.33-3.04.89-.63,1.87-1.09,2.95-1.35,2.41-.6,4.85-.98,7.32-1.15.93-.06,1.86-.12,2.79-.18,1.11-1.39,2.16-2.83,3.16-4.3.33-.52.22-.62-.34-.3-1.29.95-2.59,1.88-3.9,2.79-.3.19-.61.33-.96.42-.3-.07-.5-.26-.6-.56.1-.4.28-.76.52-1.09-.43.24-.88.47-1.35.68-.62.27-.86.07-.74-.58.18-.4.35-.8.52-1.19-.79.64-1.56,1.3-2.33,1.97-.24.02-.46-.04-.66-.18.01-.41.15-.78.42-1.09-.31.16-.62.35-.92.56-.46.3-.96.51-1.49.62-.23-.02-.34-.16-.34-.4.03-.15.06-.29.1-.44.16-.35.32-.7.48-1.03-.79.64-1.56,1.3-2.33,1.97-.24.02-.46-.04-.66-.18-.03-.15-.02-.3.04-.44.39-.77.85-1.49,1.37-2.17.36-.19.71-.18,1.05.02.03.14,0,.28-.08.4-.19.28-.4.56-.62.82.01,0,.03.01.04.02.46-.36.94-.7,1.43-1.01.27-.15.54-.19.84-.12.24.15.3.35.18.62-.24.48-.52.93-.84,1.35-.03.05-.02.09.02.12.26-.09.51-.2.76-.34.36-.25.73-.47,1.11-.68.26-.35.51-.72.74-1.09.34-.25.7-.3,1.09-.14.05.04.09.09.12.14-.2.43-.47.83-.8,1.17.45-.27.89-.58,1.31-.92.28-.19.58-.28.92-.28.31.07.43.27.34.58-.22.47-.48.91-.8,1.31-.03.07-.07.13-.1.2.02.01.04.03.06.04.49-.19.95-.43,1.37-.74.49-.62,1-1.22,1.55-1.79.27-.2.58-.27.92-.2.23.1.46.2.68.32.07.04.09.1.06.18-.28.18-.52.41-.72.68-.34.49-.7.97-1.07,1.43-.05.08-.08.16-.08.24,1.09-.83,2.19-1.66,3.28-2.49.37-.27.77-.49,1.19-.66ZM45.51,48.97c.23,0,.45,0,.68.02-.85,1.12-1.8,2.17-2.83,3.14-1.66,1.56-3.39,3.02-5.21,4.38-.64.45-1.32.85-2.03,1.19-1,.35-2.01.39-3.02.12-.72-.31-1.16-.84-1.33-1.61-.28-1.72.26-3.12,1.61-4.2,1.23-.88,2.58-1.5,4.06-1.87,1.21-.31,2.43-.55,3.66-.72,1.48-.19,2.95-.34,4.42-.46Z" style="fill-rule: evenodd; isolation: isolate; opacity: .97;"/>
  <path d="M93.35,43.64c.29-.04.47.08.54.36.03.13.03.27,0,.4-.78,1.04-1.49,2.14-2.13,3.28.44-.24.87-.51,1.27-.84.78-.65,1.54-1.32,2.27-2.03.06-.02.13-.03.2-.02,0,.04,0,.08-.02.12-1.2,1.28-2.49,2.44-3.88,3.48-.28.2-.6.32-.94.38-.09,0-.17-.02-.24-.08-.04-.28,0-.54.12-.8.44-.92.95-1.79,1.53-2.61-.01-.05-.04-.06-.08-.04-.66.58-1.36,1.1-2.11,1.55-.58.1-.89-.15-.92-.74.1-.84.48-1.54,1.11-2.09.98-.52,1.63-.25,1.95.82.44-.21.79-.53,1.05-.96.08-.08.16-.15.26-.2ZM91.36,44.59c.28-.03.48.08.6.34-.49.39-.99.76-1.51,1.11-.04.02-.08.03-.12.02.14-.64.49-1.13,1.03-1.47Z" style="fill-rule: evenodd; isolation: isolate; opacity: .96;"/>
  <path d="M72.49,43.68c.35.02.66.14.92.38-.36.33-.62.72-.78,1.17.37-.42.79-.79,1.25-1.09.44-.25.79-.16,1.05.26.13.95-.24,1.65-1.09,2.09-.35.13-.69.13-1.03,0-.16-.16-.2-.36-.12-.58.11.14.24.16.4.06.34-.23.65-.49.94-.78.13-.15.19-.32.16-.52-.05-.04-.1-.06-.16-.08-.53.22-.98.55-1.35.99-1.15,1.3-2.13,2.72-2.95,4.26-.2.19-.42.21-.66.06-.28-.16-.4-.39-.34-.7.22-.33.42-.68.6-1.03,1-1.41,1.96-2.86,2.87-4.34.1-.06.2-.11.3-.16Z" style="fill-rule: evenodd; isolation: isolate; opacity: .97;"/>
  <path d="M77.47,43.8c.35-.04.59.11.7.44.01.22.02.43.02.64.16.06.33.1.5.12.26-.05.52-.08.78-.1-.26.18-.55.28-.88.3-.18-.02-.36-.06-.54-.12-.05.07-.12.12-.2.16-.28.73-.74,1.32-1.37,1.77-.34.22-.68.23-1.03.04-.22-.18-.33-.41-.32-.7.02-.41.15-.78.38-1.11.34-.53.79-.95,1.33-1.25.21-.07.43-.13.64-.18ZM76.55,46.23c.11-.52.41-.87.92-1.03,0,.14-.05.26-.14.36-.23.26-.49.49-.78.68Z" style="fill-rule: evenodd; isolation: isolate; opacity: .97;"/>
  <path d="M80.29,44.16c.25-.02.49.01.72.1.1.14.09.28-.02.42-.22.32-.44.63-.66.92.5-.38,1.02-.75,1.55-1.09.27-.14.55-.17.84-.08.2.15.25.35.14.58-.27.51-.57.99-.9,1.45.11.02.22,0,.32-.04.55-.3,1.1-.62,1.63-.96.08-.05.16-.05.24-.02-.77.63-1.62,1.13-2.55,1.49-.48.13-.67-.05-.58-.54.13-.45.33-.86.58-1.25-.01,0-.03-.01-.04-.02-.79.61-1.54,1.25-2.27,1.93-.25.05-.47,0-.68-.14-.04-.04-.07-.08-.08-.14.13-.43.33-.84.58-1.21.27-.4.53-.8.8-1.19.12-.09.24-.16.38-.2Z" style="fill-rule: evenodd; isolation: isolate; opacity: .96;"/>
  <path d="M86.5,47.06c.25-.01.51,0,.76.06.19.09.29.24.3.46.07.79-.07,1.53-.44,2.23-.08.15-.2.25-.36.32-.08-.02-.13-.08-.14-.16.22-.65.33-1.31.34-1.99-.17-.31-.42-.42-.78-.34-.57.12-1.13.28-1.67.5-.08,0-.14-.04-.16-.12.03-.13.09-.23.2-.3.61-.34,1.26-.56,1.95-.66Z" style="fill-rule: evenodd; isolation: isolate; opacity: .95;"/>
  <path d="M71.74,47.66c.18.05.35.12.52.22,1.04.68,2.13,1.28,3.26,1.79,2.29.91,4.63,1.04,7,.4.88-.29,1.72-.67,2.51-1.15.42-.27.85-.53,1.27-.8.13-.05.21,0,.24.14-.14.38-.36.71-.68.98-.71.65-1.46,1.23-2.27,1.75-1.52.78-3.12,1.05-4.82.8-2-.43-3.83-1.22-5.49-2.39-.45-.36-.9-.72-1.35-1.07-.19-.15-.29-.34-.3-.58.04-.02.07-.05.1-.08Z" style="fill-rule: evenodd; isolation: isolate; opacity: .98;"/>
</svg>