<?xml version="1.0" encoding="UTF-8"?>
<svg id="Capa_1" xmlns="http://www.w3.org/2000/svg" width="96" height="96" xmlns:xlink="http://www.w3.org/1999/xlink" viewBox="0 0 96 96">
  <defs>
    <linearGradient id="Degradado_sin_nombre_21" data-name="Degradado sin nombre 21" x1="40.98" y1="29.23" x2="95.5" y2="29.23" gradientUnits="userSpaceOnUse">
      <stop offset="0" stop-color="#00b44b"/>
      <stop offset="1" stop-color="#005925"/>
    </linearGradient>
    <linearGradient id="Degradado_sin_nombre_24" data-name="Degradado sin nombre 24" x1="44.82" y1="65.6" x2="95.5" y2="65.6" gradientUnits="userSpaceOnUse">
      <stop offset="0" stop-color="#3d3d3f"/>
      <stop offset="1" stop-color="#008a88"/>
    </linearGradient>
  </defs>
  <g>
    <polygon points="54.4 47.04 40.98 11.42 95.5 46.63 54.4 47.04" style="fill: url(#Degradado_sin_nombre_21); fill-rule: evenodd;"/>
    <polygon points="44.82 84.58 95.5 46.63 67.55 46.91 44.82 84.58" style="fill: url(#Degradado_sin_nombre_24); fill-rule: evenodd;"/>
  </g>
  <path d="M11.99,66.3l-6.49-9.99v9.99H.5v-18.71h4.97l6.52,10.09v-10.09h5.02v18.71h-5.02ZM32.58,66.32l-.96-2.58h-5.77l-.96,2.58h-5.28l6.92-18.73h4.42l6.93,18.73h-5.29ZM28.74,54.42l-1.5,4.95h2.97l-1.47-4.95ZM50.71,66.32h-10.63v-18.73h9.8c.36,0,.72.04,1.1.14.38.09.75.21,1.11.39.36.17.7.36,1.01.59.31.23.58.47.81.75.4.48.71,1.02.93,1.61.22.6.33,1.21.33,1.84,0,.72-.14,1.42-.44,2.09-.29.67-.71,1.25-1.25,1.75.36.23.68.5.98.82.3.33.55.68.76,1.06.21.39.37.79.5,1.22.12.42.18.84.18,1.24,0,.71-.13,1.38-.4,2.02-.26.63-.63,1.19-1.11,1.66-.47.47-1.03.85-1.65,1.14-.63.28-1.3.42-2.03.42h0ZM48.37,51.35h-3.35v3.82h3.35c.52,0,.96-.19,1.34-.57.38-.37.57-.82.57-1.34s-.19-.96-.57-1.34c-.37-.38-.82-.57-1.34-.57h0ZM48.54,58.57h-3.52v3.79h3.52c.53,0,.98-.19,1.35-.56.37-.37.55-.82.55-1.35s-.18-.96-.55-1.33c-.37-.37-.82-.56-1.35-.56h0Z"/>
  <g>
    <path d="M20.03,53.72c.87,0,1.57.71,1.57,1.57s-.7,1.57-1.57,1.57-1.57-.7-1.57-1.57.7-1.57,1.57-1.57h0Z" style="fill: #00a648; fill-rule: evenodd;"/>
    <path d="M37.28,53.72c.87,0,1.57.71,1.57,1.57s-.71,1.57-1.57,1.57-1.57-.7-1.57-1.57.7-1.57,1.57-1.57h0Z" style="fill: #00a648; fill-rule: evenodd;"/>
  </g>
</svg>