<?xml version="1.0" encoding="UTF-8"?>
<svg id="Capa_1" xmlns="http://www.w3.org/2000/svg" width="96" height="96" viewBox="0 0 96 96">
  <g>
    <path d="M10.71,49.04h1.94l2.8,7.96h.11l2.79-7.96h1.96l-3.62,9.86h-2.37l-3.62-9.86Z" style="fill: #00c0c0;"/>
    <path d="M21.99,48.52c.54,0,1.01.44,1.01,1.01s-.48,1.01-1.01,1.01-1.03-.44-1.03-1.01.48-1.01,1.03-1.01ZM21.09,51.58h1.8v7.32h-1.8v-7.32Z" style="fill: #00c0c0;"/>
    <path d="M23.53,51.58h1.83l1.97,5.61h.07l1.97-5.61h1.84l-2.72,7.32h-2.27l-2.7-7.32Z" style="fill: #00c0c0;"/>
    <path d="M31.08,55.22c0-2.7,1.68-3.79,3.59-3.79s3.44,1.04,3.44,3.72c0,.25-.01.39-.04.55h-5.28c.11,1.37.8,1.96,1.96,1.96.92,0,1.45-.35,1.66-1.06h1.61c-.39,1.66-1.68,2.44-3.31,2.44-1.9,0-3.62-1.08-3.62-3.82ZM36.4,54.6c-.04-1.03-.58-1.79-1.76-1.79-1.06,0-1.72.59-1.84,1.79h3.61Z" style="fill: #00c0c0;"/>
    <path d="M41.73,56.03h1.17c.07,1.13.85,2.01,2.62,2.01,1.62,0,2.42-.75,2.42-1.86s-.79-1.55-1.94-1.77l-1.31-.27c-1.72-.34-2.68-1.17-2.68-2.59,0-1.61,1.21-2.63,3.42-2.63s3.42,1.03,3.42,2.63h-1.15c-.04-.94-.77-1.65-2.28-1.65s-2.2.73-2.2,1.65c0,.8.49,1.39,1.79,1.65l1.27.25c1.8.37,2.87,1.11,2.87,2.72,0,1.83-1.39,2.87-3.65,2.87-2.48,0-3.77-1.25-3.77-3.01Z" style="fill: #9a9c9b;"/>
    <path d="M49.91,55.24c0-2.61,1.7-3.8,3.52-3.8s3.52,1.2,3.52,3.8-1.7,3.8-3.52,3.8-3.52-1.2-3.52-3.8ZM53.43,58.08c1.27,0,2.44-.87,2.44-2.84s-1.17-2.86-2.44-2.86-2.45.89-2.45,2.86,1.17,2.84,2.45,2.84Z" style="fill: #9a9c9b;"/>
    <path d="M57.91,49.04h1.13v9.86h-1.13v-9.86Z" style="fill: #9a9c9b;"/>
    <path d="M63.35,58.08c1.23,0,2.07-.73,2.16-2v-4.51h1.14v7.32h-1.14v-1.44h-.03c-.13.49-.83,1.58-2.52,1.58-1.45,0-2.62-.79-2.62-2.94v-4.52h1.14v4.3c-.01,1.39.58,2.21,1.87,2.21Z" style="fill: #9a9c9b;"/>
    <path d="M68.66,57.18v-4.69h-1.18v-.92h1.18v-1.83h1.13v1.83h1.45v.92h-1.45v4.48c0,.79.27,1.1,1.06,1.1.18,0,.31,0,.51-.03v.87c-.25.06-.52.08-.82.08-1.1,0-1.87-.46-1.87-1.82Z" style="fill: #9a9c9b;"/>
    <path d="M72.8,48.7c.38,0,.7.31.7.7s-.32.72-.7.72-.72-.32-.72-.72.34-.7.72-.7ZM72.23,51.58h1.13v7.32h-1.13v-7.32Z" style="fill: #9a9c9b;"/>
    <path d="M74.32,55.24c0-2.61,1.7-3.8,3.52-3.8s3.52,1.2,3.52,3.8-1.7,3.8-3.52,3.8-3.52-1.2-3.52-3.8ZM77.84,58.08c1.27,0,2.44-.87,2.44-2.84s-1.17-2.86-2.44-2.86-2.45.89-2.45,2.86,1.17,2.84,2.45,2.84Z" style="fill: #9a9c9b;"/>
    <path d="M85.6,52.39c-1.3,0-2.15.82-2.15,2.21v4.3h-1.13v-7.32h1.13v1.44h.03c.13-.49.83-1.58,2.52-1.58,1.45,0,2.62.79,2.62,2.94v4.52h-1.13v-4.3c0-1.39-.59-2.21-1.89-2.21Z" style="fill: #9a9c9b;"/>
    <path d="M89.51,56.81h1.01c.14,1,1.06,1.34,2.01,1.34s1.8-.37,1.8-1.28c0-.72-.49-.96-1.28-1.14l-1.38-.32c-1.3-.31-1.94-.97-1.94-1.97,0-1.3,1.1-2,2.76-2s2.73.7,2.82,2.17h-.96c-.15-.96-.84-1.28-1.86-1.28-1.07,0-1.66.35-1.66,1.11,0,.56.34.92,1.23,1.11l1.37.32c1.21.28,2.07.75,2.07,1.99,0,1.61-1.46,2.18-2.97,2.18-1.68,0-2.94-.69-3.01-2.23Z" style="fill: #9a9c9b;"/>
  </g>
  <g>
    <path d="M7.85,59.04H3.22c-.15,0-.28-.08-.36-.21l-2.31-4c-.07-.13-.07-.28,0-.41l2.31-4c.07-.13.21-.21.36-.21h4.62c.15,0,.28.08.36.21l2.31,4c.07.13.07.28,0,.41l-2.31,4c-.07.13-.21.21-.36.21ZM3.46,58.22h4.15l2.07-3.59-2.07-3.59H3.46l-2.07,3.59,2.07,3.59Z" style="fill: #d4d4d4;"/>
    <path d="M7.85,50.21H3.22c-.15,0-.28-.08-.36-.21l-2.31-4c-.07-.13-.07-.28,0-.41l2.31-4c.07-.13.21-.21.36-.21h4.62c.15,0,.28.08.36.21l2.31,4c.07.13.07.28,0,.41l-2.31,4c-.07.13-.21.21-.36.21ZM3.46,49.38h4.15l2.07-3.59-2.07-3.59H3.46l-2.07,3.59,2.07,3.59Z" style="fill: #9a9c9b;"/>
    <path d="M15.49,45.79h-4.62c-.15,0-.28-.08-.36-.21l-2.31-4c-.07-.13-.07-.28,0-.41l2.31-4c.07-.13.21-.21.36-.21h4.62c.15,0,.28.08.36.21l2.31,4c.07.13.07.28,0,.41l-2.31,4c-.07.13-.21.21-.36.21ZM11.11,44.97h4.15l2.07-3.59-2.07-3.59h-4.15l-2.07,3.59,2.07,3.59Z" style="fill: #00c0c0;"/>
  </g>
</svg>