<?xml version="1.0" encoding="UTF-8"?>
<svg id="Capa_1" xmlns="http://www.w3.org/2000/svg" width="96" height="96" viewBox="0 0 96 96">
  <g>
    <path d="M30.77,17.22l.09,7.41c6.09-2.8,18.6-2.29,21.61-1-6.81,10.57-14.35,21.87-21.53,32.89-.66.99-.82,1.26-.82,1.65s.33.55.93.55c11.09,0,20.31.27,29.47.27,2.89,0,3.4-9.82,2.2-9.82-.22,0-.41.13-.43.4-.27,3.54-6.31,5.95-9.57,5.9l-13.37-.2c7.65-11.66,15.89-24.08,23.37-36.22.54-.95.84-1.33-.49-1.32-2.6,0-13.79.04-22.11-.02-4.83-.04-8.7-.16-9.34-.47Z" style="fill: #000001; fill-rule: evenodd;"/>
    <path d="M61.64,58.04l.05-6.77c1.03-1.71-.92-4-1.3-5.69-1.52.84-7.64,6.4-7.64,6.4-.2-.43-.1-.17-.61-.19.13-.25.29-.46.41-.73-.99.3-6.59,9.91-4.66,4.97l-.15-.09c-.35.5-.76,1.4-1.21,1.78-.33.27-1.05.26-.61-.41,2.06-3.12,4.32-6.18,5.78-9.63,2.12-5.01,5.57-9.22,8.09-13.92.72-1.34,1.32-2.79,1.59-4.34.52-2.99,1.87-4.98,4.7-5.67,1.76-.43,2.59.47,4.08.97,1,.16,1.46.19,2.39.59-.13.53-1.37,1.05-2.17,1.44-1.69.83-1.72,3.05-1.27,4.59,2.36,6.23-1.91,10.84-7.06,13.44.02,1.25.24,1.91.49,2.49,1.5,3.51.59,7.58-.9,10.78Z" style="fill: #000001; fill-rule: evenodd;"/>
  </g>
  <g>
    <path d="M15.81,61.71v2.04c2.44-1.12,8.01-.91,9.22-.39-2.73,4.23-6.33,9.63-9.2,14.05-.26.4-.33.51-.33.66s.13.22.37.22c4.44,0,7.28.11,10.95.11,1.16,0,1.35-3.48.86-3.48-.09,0-.16.05-.17.16-.02,1.78-2.46,2.48-3.85,2.46l-5.75-.08c3.06-4.67,6.72-10.2,9.72-15.06.22-.38.34-.53-.2-.53-1.04,0-5.14.02-8.47,0-1.94-.01-2.9-.02-3.16-.14Z" style="fill: #000001; fill-rule: evenodd;"/>
    <path d="M73.33,78.78c-9.29,0-9.01-13.3.03-13.3,9.53,0,9.51,13.3-.03,13.3h0ZM73.57,65.99c-7.11,0-6.99,12.21-.17,12.21s7.18-12.21.17-12.21h0ZM61.48,66.89l3.99.06v-1.12h-9.93s0,1.12,0,1.12l4.04-.06v11.39s1.89,0,1.89,0v-11.39h.01ZM42.59,65.82h.58l9.57,9.51v-9.41s1.31,0,1.31,0l-.02,12.38h-.6l-9.66-9.79.11,9.78h-1.31l.02-12.47h0ZM36.77,72.76l-2.13-4.58-2.09,4.58h4.23ZM35.3,65.84l5.76,12.44h-2.01l-1.97-4.77h-4.89c-.94,2.23-1.57,3.82-1.89,4.77h-1.37l6-12.44h.38Z" style="fill: #000001; fill-rule: evenodd;"/>
  </g>
</svg>